<?xml version="1.0" standalone="no"?>
<!DOCTYPE svg PUBLIC "-//W3C//DTD SVG 20010904//EN"
 "http://www.w3.org/TR/2001/REC-SVG-20010904/DTD/svg10.dtd">
<svg version="1.0" xmlns="http://www.w3.org/2000/svg"
 width="700.000000pt" height="700.000000pt" viewBox="0 0 700.000000 700.000000"
 preserveAspectRatio="xMidYMid meet">
<metadata>
Created by potrace 1.11, written by Peter Selinger 2001-2013
</metadata>
<g transform="translate(0.000000,700.000000) scale(0.100000,-0.100000)"
fill="#000000" stroke="none">
<path d="M1027 6113 c-26 -7 -61 -29 -85 -53 -110 -108 -78 -286 63 -351 34
-16 66 -19 213 -19 104 0 172 -4 172 -10 0 -5 -21 -60 -46 -122 -25 -62 -59
-147 -76 -188 -16 -41 -36 -88 -43 -105 -7 -16 -81 -199 -164 -405 -84 -206
-156 -384 -161 -395 -14 -29 -260 -636 -260 -641 0 -2 -12 -29 -26 -59 -71
-156 -8 -457 145 -690 137 -209 403 -386 646 -430 22 -4 51 -9 65 -12 71 -13
209 -8 335 11 158 25 370 137 506 267 146 140 269 367 294 541 3 23 8 51 11
61 3 9 6 54 6 100 1 81 -1 86 -86 297 -48 118 -91 224 -96 235 -5 11 -34 81
-64 155 -30 74 -80 196 -111 270 -31 74 -58 142 -60 150 -2 8 -12 35 -23 60
-11 25 -54 131 -97 235 -42 105 -85 209 -96 232 -10 24 -19 46 -19 49 0 3 -6
20 -14 37 -33 71 -136 334 -136 345 0 10 162 12 730 11 l730 -1 0 -22 c4 -154
1 -3469 -3 -3472 -2 -3 -276 -5 -608 -5 -638 0 -683 -3 -796 -48 -109 -43
-219 -129 -289 -227 -117 -164 -150 -350 -100 -563 11 -46 77 -175 113 -221
104 -129 243 -215 403 -246 19 -4 688 -8 1485 -8 1094 -2 1466 1 1515 10 172
32 311 120 416 264 50 68 77 125 103 213 27 95 23 274 -8 367 -64 188 -208
342 -383 411 -115 45 -158 48 -797 48 -332 0 -605 2 -608 4 -3 4 -6 3210 -3
3469 l0 28 735 0 735 0 -9 -22 c-19 -48 -232 -574 -241 -593 -5 -11 -41 -99
-80 -195 -39 -96 -75 -184 -80 -195 -5 -11 -59 -144 -120 -295 -61 -151 -115
-284 -120 -295 -5 -11 -43 -104 -85 -207 -84 -210 -89 -238 -68 -386 72 -500
496 -871 998 -874 61 -1 126 2 145 5 19 4 49 9 65 12 175 32 373 136 506 266
173 170 265 348 303 586 22 142 15 189 -54 358 -33 83 -65 159 -70 170 -5 11
-30 72 -56 135 -25 63 -174 429 -330 812 -156 383 -284 702 -284 708 0 6 58
10 171 10 150 0 176 2 217 20 134 59 168 240 66 346 -73 74 168 68 -2552 69
-1929 0 -2451 -2 -2485 -12z m783 -1583 c110 -272 205 -505 210 -517 23 -53
60 -143 60 -147 0 0 -214 -1 -475 -1 -261 0 -475 1 -475 3 0 3 136 339 350
862 62 151 115 281 117 288 3 7 7 11 9 10 1 -2 93 -226 204 -498z m3676 283
c42 -104 82 -201 89 -218 37 -89 295 -724 295 -727 0 -2 -214 -3 -475 -3 -261
0 -475 1 -475 2 0 2 26 67 59 145 32 79 88 217 125 308 37 91 71 174 76 185
12 26 115 281 170 418 32 80 46 104 52 93 5 -9 43 -100 84 -203z"/>
</g>
</svg>
